<?xml version="1.0" standalone="no"?>
<!DOCTYPE svg PUBLIC "-//W3C//DTD SVG 20010904//EN"
 "http://www.w3.org/TR/2001/REC-SVG-20010904/DTD/svg10.dtd">
<svg version="1.0" xmlns="http://www.w3.org/2000/svg"
 width="96.000000pt" height="96.000000pt" viewBox="0 0 96.000000 96.000000"
 preserveAspectRatio="xMidYMid meet">
<metadata>
Created by potrace 1.14, written by Peter Selinger 2001-2017
</metadata>
<g transform="translate(0.000000,96.000000) scale(0.100000,-0.100000)"
fill="#000000" stroke="none">
<path d="M593 897 c-34 -30 -40 -32 -62 -21 -30 16 -46 8 -94 -45 -25 -27 -35
-46 -30 -58 3 -10 31 -44 61 -75 50 -51 54 -59 41 -74 -26 -32 -182 -184 -188
-184 -4 0 -31 24 -60 54 -70 71 -83 73 -133 28 -50 -45 -61 -70 -43 -98 12
-19 10 -25 -21 -55 -43 -42 -43 -66 1 -109 41 -40 42 -43 15 -70 -29 -29 -25
-57 15 -96 40 -39 66 -43 95 -14 27 27 30 26 70 -15 42 -44 67 -44 109 -1 31
32 35 33 59 20 31 -16 46 -9 95 45 44 49 41 62 -29 132 -30 29 -54 56 -54 60
0 8 190 199 198 199 3 0 33 -27 68 -60 69 -67 77 -68 133 -16 43 40 53 65 36
92 -12 19 -10 25 21 55 43 42 43 66 -1 109 -41 40 -42 43 -15 70 29 29 25 57
-15 96 -40 39 -66 43 -95 14 -27 -27 -30 -26 -70 15 -19 19 -42 35 -52 35 -10
0 -35 -15 -55 -33z"/>
</g>
</svg>
