<svg width="43" height="43" viewBox="0 0 43 43" fill="none" xmlns="http://www.w3.org/2000/svg">
<g id="Group 241">
<rect id="Rectangle 488" width="43" height="43" fill="#292929"/>
<path id="Vector" d="M32.9989 14.2199C32.1375 14.601 31.2239 14.8512 30.2886 14.9624C31.2745 14.3728 32.0123 13.4448 32.3647 12.3514C31.4395 12.902 30.4251 13.2879 29.3679 13.4967C28.6577 12.7368 27.7164 12.2329 26.6903 12.0632C25.6641 11.8935 24.6108 12.0676 23.6938 12.5584C22.7768 13.0492 22.0477 13.8292 21.6197 14.7771C21.1917 15.725 21.089 16.7878 21.3274 17.8001C19.451 17.7061 17.6155 17.2185 15.9398 16.369C14.2642 15.5196 12.786 14.3272 11.6011 12.8693C11.1817 13.5897 10.9613 14.4086 10.9625 15.2422C10.9625 16.8783 11.7952 18.3237 13.0612 19.1699C12.312 19.1464 11.5793 18.944 10.9241 18.5798V18.6385C10.9243 19.7281 11.3014 20.7842 11.9914 21.6275C12.6813 22.4709 13.6417 23.0497 14.7097 23.2658C14.0142 23.4543 13.2849 23.482 12.5771 23.347C12.8782 24.285 13.4651 25.1052 14.2556 25.693C15.0461 26.2808 16.0007 26.6066 16.9855 26.6248C16.0066 27.3936 14.8859 27.9619 13.6873 28.2973C12.4887 28.6326 11.2356 28.7283 10 28.5791C12.1571 29.9664 14.668 30.7028 17.2326 30.7004C25.9129 30.7004 30.6598 23.5095 30.6598 17.2732C30.6598 17.0701 30.6541 16.8648 30.6452 16.6639C31.5691 15.9961 32.3665 15.1689 33 14.2211L32.9989 14.2199Z" fill="#E74C3C"/>
</g>
</svg>
