<svg width="43" height="43" viewBox="0 0 43 43" fill="none" xmlns="http://www.w3.org/2000/svg">
<g id="Group 240">
<rect id="Rectangle 489" width="43" height="43" fill="#292929"/>
<path id="Vector" d="M21.3502 12C23.8905 12 24.2076 12.0094 25.2047 12.0561C26.2003 12.1029 26.878 12.259 27.475 12.4909C28.0913 12.7284 28.6119 13.05 29.1318 13.569C29.6068 14.0364 29.9748 14.6018 30.2097 15.2258C30.4408 15.8214 30.5979 16.5003 30.6443 17.496C30.6884 18.4928 30.7004 18.8098 30.7004 21.3502C30.7004 23.8906 30.6914 24.2076 30.6443 25.2044C30.5979 26.2001 30.4408 26.878 30.2097 27.4746C29.9756 28.099 29.6075 28.6645 29.1318 29.1314C28.6636 29.6067 28.0988 29.9746 27.475 30.2096C26.8788 30.4405 26.2003 30.5975 25.2047 30.6443C24.2076 30.6883 23.8905 30.7004 21.3502 30.7004C18.8099 30.7004 18.4928 30.6911 17.4957 30.6443C16.5001 30.5975 15.8224 30.4405 15.2254 30.2096C14.6016 29.9753 14.0361 29.6073 13.5686 29.1314C13.0936 28.6641 12.7256 28.0987 12.4907 27.4746C12.2588 26.8789 12.1025 26.2001 12.0561 25.2044C12.012 24.2076 12 23.8906 12 21.3502C12 18.8098 12.009 18.4928 12.0561 17.496C12.1025 16.4993 12.2588 15.8224 12.4907 15.2258C12.7248 14.6014 13.0929 14.0358 13.5686 13.569C14.0361 13.0933 14.6016 12.7253 15.2254 12.4909C15.8224 12.259 16.4993 12.1029 17.4957 12.0561C18.4928 12.0122 18.8099 12 21.3502 12ZM21.3502 16.6751C20.11 16.6751 18.9214 17.1677 18.0447 18.0444C17.1673 18.9212 16.6751 20.1103 16.6751 21.3502C16.6751 22.5901 17.1673 23.7792 18.0447 24.656C18.9214 25.5327 20.11 26.0253 21.3502 26.0253C22.5904 26.0253 23.779 25.5327 24.6557 24.656C25.5331 23.7792 26.0253 22.5901 26.0253 21.3502C26.0253 20.1103 25.5331 18.9212 24.6557 18.0444C23.779 17.1677 22.5904 16.6751 21.3502 16.6751ZM27.4278 16.4413C27.4278 16.1314 27.3044 15.8341 27.0852 15.6149C26.8661 15.3957 26.5691 15.2726 26.2587 15.2726C25.949 15.2726 25.652 15.3957 25.4329 15.6149C25.2137 15.8341 25.0903 16.1314 25.0903 16.4413C25.0903 16.7513 25.2137 17.0486 25.4329 17.2678C25.652 17.487 25.949 17.6101 26.2587 17.6101C26.5691 17.6101 26.8661 17.487 27.0852 17.2678C27.3044 17.0486 27.4278 16.7513 27.4278 16.4413ZM21.3502 18.5451C22.0945 18.5451 22.8073 18.8407 23.3339 19.3667C23.8598 19.8928 24.1553 20.6062 24.1553 21.3502C24.1553 22.0942 23.8598 22.8076 23.3339 23.3337C22.8073 23.8597 22.0945 24.1553 21.3502 24.1553C20.6059 24.1553 19.8931 23.8597 19.3665 23.3337C18.8406 22.8076 18.5451 22.0942 18.5451 21.3502C18.5451 20.6062 18.8406 19.8928 19.3665 19.3667C19.8931 18.8407 20.6059 18.5451 21.3502 18.5451Z" fill="#E74C3C"/>
</g>
</svg>
